{
  "accessors": [
    {
      "bufferView": 2,
      "componentType": 5126,
      "count": 1185,
      "max": [
        0.09069738537073135,
        0.13745473325252533,
        0.07444541156291962
      ],
      "min": [
        -0.08417893201112747,
        -0.11835384368896484,
        -0.07321935147047043
      ],
      "type": "VEC3"
    },
    {
      "bufferView": 2,
      "byteOffset": 14220,
      "componentType": 5126,
      "count": 1185,
      "max": [
        0.9987621307373047,
        0.9976956248283386,
        0.9979305863380432
      ],
      "min": [
        -0.9986921548843384,
        -0.9972182512283325,
        -0.9979283213615417
      ],
      "type": "VEC3"
    },
    {
      "bufferView": 1,
      "componentType": 5126,
      "count": 1185,
      "max": [
        0.9280033707618713,
        0.9868165254592896
      ],
      "min": [
        0.02737879753112793,
        0.0341796912252903
      ],
      "type": "VEC2"
    },
    {
      "bufferView": 0,
      "componentType": 5125,
      "count": 6243,
      "type": "SCALAR"
    },
    {
      "bufferView": 2,
      "byteOffset": 28440,
      "componentType": 5126,
      "count": 7252,
      "max": [
        0.09774253517389297,
        0.15255804359912872,
        0.0659279152750969
      ],
      "min": [
        -0.032287828624248505,
        0.09380573779344559,
        -0.06546929478645325
      ],
      "type": "VEC3"
    },
    {
      "bufferView": 2,
      "byteOffset": 115464,
      "componentType": 5126,
      "count": 7252,
      "max": [
        0.9973991513252258,
        0.9997490048408508,
        0.9998075366020203
      ],
      "min": [
        -0.9972143769264221,
        -0.9997791647911072,
        -0.9995765686035156
      ],
      "type": "VEC3"
    },
    {
      "bufferView": 1,
      "byteOffset": 9480,
      "componentType": 5126,
      "count": 7252,
      "max": [
        0.9999995827674866,
        1.0
      ],
      "min": [
        0.0,
        0.0
      ],
      "type": "VEC2"
    },
    {
      "bufferView": 0,
      "byteOffset": 24972,
      "componentType": 5125,
      "count": 7260,
      "type": "SCALAR"
    },
    {
      "bufferView": 2,
      "byteOffset": 202488,
      "componentType": 5126,
      "count": 357,
      "max": [
        0.07883764803409576,
        0.06090840697288513,
        0.060848526656627655
      ],
      "min": [
        -0.0708424523472786,
        -0.10503366589546204,
        -0.06191977113485336
      ],
      "type": "VEC3"
    },
    {
      "bufferView": 2,
      "byteOffset": 206772,
      "componentType": 5126,
      "count": 357,
      "max": [
        0.9602806568145752,
        0.9999983310699463,
        0.999025285243988
      ],
      "min": [
        -0.9999192953109741,
        -0.9661269783973694,
        -0.9985901117324829
      ],
      "type": "VEC3"
    },
    {
      "bufferView": 1,
      "byteOffset": 67496,
      "componentType": 5126,
      "count": 357,
      "max": [
        0.97998046875,
        0.98681640625
      ],
      "min": [
        0.0186767578125,
        0.0261077880859375
      ],
      "type": "VEC2"
    },
    {
      "bufferView": 0,
      "byteOffset": 54012,
      "componentType": 5125,
      "count": 1404,
      "type": "SCALAR"
    }
  ],
  "asset": {
    "extras": {
      "author": "WHITEMELLO (https://sketchfab.com/WHITEMELLO)",
      "license": "CC-BY-4.0 (http://creativecommons.org/licenses/by/4.0/)",
      "source": "https://sketchfab.com/3d-models/fortnite-slurp-juice-c2230b9781d84fa9a9e9d076156ab512",
      "title": "FORTNITE SLURP JUICE"
    },
    "generator": "Sketchfab-15.16.0",
    "version": "2.0"
  },
  "bufferViews": [
    {
      "buffer": 0,
      "byteLength": 59628,
      "name": "floatBufferViews",
      "target": 34963
    },
    {
      "buffer": 0,
      "byteLength": 70352,
      "byteOffset": 59628,
      "byteStride": 8,
      "name": "floatBufferViews",
      "target": 34962
    },
    {
      "buffer": 0,
      "byteLength": 211056,
      "byteOffset": 129980,
      "byteStride": 12,
      "name": "floatBufferViews",
      "target": 34962
    }
  ],
  "buffers": [
    {
      "byteLength": 341036,
      "uri": "scene.bin"
    }
  ],
  "extensionsUsed": [
    "KHR_materials_emissive_strength"
  ],
  "materials": [
    {
      "alphaMode": "BLEND",
      "doubleSided": true,
      "name": "shield",
      "pbrMetallicRoughness": {
        "baseColorFactor": [
          1.0,
          1.0,
          1.0,
          0.44952380952380955
        ],
        "metallicFactor": 0.0,
        "roughnessFactor": 0.0431818
      }
    },
    {
      "doubleSided": true,
      "emissiveFactor": [
        0.0,
        1.0,
        0.9360830000000004
      ],
      "name": "material",
      "pbrMetallicRoughness": {
        "baseColorFactor": [
          0.0,
          0.7760390000000003,
          0.7999999999999999,
          1.0
        ],
        "roughnessFactor": 0.556818
      }
    },
    {
      "alphaMode": "BLEND",
      "doubleSided": true,
      "emissiveFactor": [
        0.0,
        1.0,
        1.0
      ],
      "extensions": {
        "KHR_materials_emissive_strength": {
          "emissiveStrength": 8.213333333333333
        }
      },
      "name": "slurp",
      "pbrMetallicRoughness": {
        "baseColorFactor": [
          0.0,
          0.7999999999999999,
          0.7721840000000002,
          0.9676190476190476
        ],
        "metallicFactor": 0.0,
        "roughnessFactor": 0.0
      }
    }
  ],
  "meshes": [
    {
      "name": "Object_0",
      "primitives": [
        {
          "attributes": {
            "NORMAL": 1,
            "POSITION": 0,
            "TEXCOORD_0": 2
          },
          "indices": 3,
          "material": 0,
          "mode": 4
        }
      ]
    },
    {
      "name": "Object_1",
      "primitives": [
        {
          "attributes": {
            "NORMAL": 5,
            "POSITION": 4,
            "TEXCOORD_0": 6
          },
          "indices": 7,
          "material": 1,
          "mode": 4
        }
      ]
    },
    {
      "name": "Object_2",
      "primitives": [
        {
          "attributes": {
            "NORMAL": 9,
            "POSITION": 8,
            "TEXCOORD_0": 10
          },
          "indices": 11,
          "material": 2,
          "mode": 4
        }
      ]
    }
  ],
  "nodes": [
    {
      "children": [
        1
      ],
      "matrix": [
        1.0,
        0.0,
        0.0,
        0.0,
        0.0,
        2.220446049250313e-16,
        -1.0,
        0.0,
        0.0,
        1.0,
        2.220446049250313e-16,
        0.0,
        0.0,
        0.0,
        0.0,
        1.0
      ],
      "name": "Sketchfab_model"
    },
    {
      "children": [
        2
      ],
      "name": "root"
    },
    {
      "children": [
        3
      ],
      "matrix": [
        1.0,
        0.0,
        0.0,
        0.0,
        0.0,
        2.220446049250313e-16,
        1.0,
        0.0,
        0.0,
        -1.0,
        2.220446049250313e-16,
        0.0,
        0.0,
        0.0,
        0.0,
        1.0
      ],
      "name": "GLTF_SceneRootNode"
    },
    {
      "children": [
        4,
        5,
        7
      ],
      "name": "shield_2"
    },
    {
      "mesh": 0,
      "name": "Object_4"
    },
    {
      "children": [
        6
      ],
      "name": "lid_0"
    },
    {
      "mesh": 1,
      "name": "Object_6"
    },
    {
      "children": [
        8
      ],
      "name": "slurp_1"
    },
    {
      "mesh": 2,
      "name": "Object_8"
    }
  ],
  "scene": 0,
  "scenes": [
    {
      "name": "Sketchfab_Scene",
      "nodes": [
        0
      ]
    }
  ]
}
